<?xml version="1.0" encoding="utf-8"?>
<!-- Generator: Adobe Illustrator 23.0.0, SVG Export Plug-In . SVG Version: 6.00 Build 0)  -->
<svg version="1.1" id="logo_g" xmlns="http://www.w3.org/2000/svg" xmlns:xlink="http://www.w3.org/1999/xlink" x="0px" y="0px"
	 viewBox="0 0 298.5 297" style="enable-background:new 0 0 298.5 297;" xml:space="preserve">
<style type="text/css">
	.st0{fill:none;}
</style>
<title>g</title>
<path d="M271.5,62.8c0.5,0.7,0.9,1.4,1.3,2.1c0.1,0.1,0,0.3-0.1,0.5c-0.3,0-0.6,0.1-0.8,0c-50-36.2-111.5-36.9-165.4-2.5
	C86.5,75.7,71,92.6,64.2,115.9c-12.3,41.8,9.8,103.6,70.9,117.9c69.5,16.2,130.5-46.3,113.5-115.6c-0.3-1.3-0.5-2.6-0.9-4.6
	c17.9,0.8,34.5,3.6,46.6,18c5.8,10.3,3.8,26.3,3.8,26.3c0,62-57,139-142,139C87.5,297,0,250,0,149C0,83,47.1,0,154.1,0
	C228.1,0,263.1,50.8,271.5,62.8z"/>
<path class="st0" d="M87.1,300"/>
<path d="M154,95.3c29.2-12,59.4-14.7,90-6.5c17.6,4.7,34.7,13.3,45.4,28.4c-25.1-19.8-56.6-24.7-87.6-19.6
	c-31.7,5.3-53.6,24.5-69.7,51.3c6.8-5,13.4-10.3,20.4-14.9c19.2-12.8,39.4-23.4,62.7-25.7c24.8-2.4,47.2,1.3,69.3,14.3
	c11.8,7.9,12.7,13.1,13.5,21.4c-18-18.7-40.5-20-63.6-19.7c-1.4,0-3.3,1.9-4.2,3.3c-3.1,5.3-5.7,10.9-8.9,16.1
	c-12.6,20.2-30.1,33.5-53.9,37.8c-5.1,0.9-10.1,2.3-15.1,3.4c-17.5,3.9-33.3,11.2-47.5,23.8C104.9,208.9,102.9,118.5,154,95.3z"/>
</svg>
